<svg width="426" height="181" viewBox="0 0 426 181" fill="none" xmlns="http://www.w3.org/2000/svg">
<path fill-rule="evenodd" clip-rule="evenodd" d="M40.3965 180.562C38.6022 180.85 36.7623 181 34.8879 181C15.6199 181 0 165.168 0 145.639C0 130.174 9.79496 117.028 23.44 112.226C23.32 110.994 23.2586 109.744 23.2586 108.48C23.2586 87.6268 39.9746 70.7219 60.5948 70.7219C65.7995 70.7219 70.7554 71.7989 75.2566 73.7445C77.4117 72.0354 79.7214 70.5101 82.1616 69.1924C82.066 68.116 82.0172 67.027 82.0172 65.9272C82.0172 44.7428 100.103 27.5695 122.414 27.5695C124.984 27.5695 127.499 27.7975 129.936 28.2333C138.352 19.676 149.974 14.3841 162.81 14.3841C174.265 14.3841 184.753 18.5985 192.859 25.587C203.393 10.2053 221.909 0 242.991 0C267.701 0 288.885 14.019 297.825 33.96C299.087 33.7001 300.401 33.5629 301.75 33.5629C310.963 33.5629 318.537 39.9624 319.415 48.1516C325.435 44.9647 332.347 43.1523 339.698 43.1523C363.023 43.1523 381.931 61.3989 381.931 83.9073C381.931 88.7305 381.063 93.3579 379.469 97.6521C397.174 102.879 410.086 119.165 410.086 138.447C410.086 139.311 410.06 140.17 410.009 141.021C419.24 143.451 426 151.306 426 160.623C426 171.877 416.135 181 403.966 181C403.555 181 403.147 180.99 402.741 180.969V181H367.241H40.3965V180.562Z" fill="#D9D9D9"/>
</svg>
