<svg width="444" height="516" viewBox="0 0 444 516" fill="none" xmlns="http://www.w3.org/2000/svg">
<g id="gameBackground">
<rect width="444" height="516" fill="#293780"/>
<g id="footer" opacity="0.7">
<rect x="9" y="476" width="426" height="33" rx="16.5" fill="#C8EBFF"/>
<rect x="9" y="476" width="426" height="33" rx="16.5" fill="#C8EBFF"/>
</g>
<g id="header">
<rect x="8" y="5" width="426" height="31" rx="15.5" fill="#C8EBFF"/>
<rect x="8" y="5" width="426" height="31" rx="15.5" fill="#01003F"/>
</g>
<g id="filter5" opacity="0.7">
<rect x="11" y="42" width="60" height="35" rx="17.5" fill="#C8EBFF"/>
<rect x="11" y="42" width="60" height="35" rx="17.5" fill="#C8EBFF"/>
</g>
<g id="filter5_2" opacity="0.7">
<rect x="83" y="42" width="60" height="35" rx="17.5" fill="#C8EBFF"/>
<rect x="83" y="42" width="60" height="35" rx="17.5" fill="#C8EBFF"/>
</g>
<g id="filter5_3" opacity="0.7">
<rect x="155" y="42" width="60" height="35" rx="17.5" fill="#C8EBFF"/>
<rect x="155" y="42" width="60" height="35" rx="17.5" fill="#C8EBFF"/>
</g>
<g id="filter5_4" opacity="0.7">
<rect x="227" y="42" width="60" height="35" rx="17.5" fill="#C8EBFF"/>
<rect x="227" y="42" width="60" height="35" rx="17.5" fill="#C8EBFF"/>
</g>
<g id="filter5_5" opacity="0.7">
<rect x="299" y="42" width="60" height="35" rx="17.5" fill="#C8EBFF"/>
<rect x="299" y="42" width="60" height="35" rx="17.5" fill="#C8EBFF"/>
</g>
<g id="filter5_6" opacity="0.7">
<rect x="371" y="42" width="60" height="35" rx="17.5" fill="#C8EBFF"/>
<rect x="371" y="42" width="60" height="35" rx="17.5" fill="#C8EBFF"/>
</g>
<g id="starbackground" opacity="0.7">
<rect x="8" y="83" width="426" height="191" rx="26" fill="#C8EBFF"/>
<rect x="8" y="83" width="426" height="191" rx="26" fill="#C8EBFF"/>
</g>
<g id="Stars">
<g id="Stars_2">
<path id="Star 1" d="M28.594 94.9965C29.1848 93.1376 31.8152 93.1376 32.406 94.9965L35.1084 103.498C35.3723 104.329 36.1433 104.893 37.0145 104.893H45.8515C47.7783 104.893 48.5908 107.349 47.044 108.498L39.8196 113.864C39.1339 114.373 38.8473 115.261 39.106 116.075L41.8475 124.7C42.4357 126.551 40.3078 128.069 38.749 126.912L31.6925 121.671C30.9844 121.145 30.0156 121.145 29.3075 121.671L22.251 126.912C20.6922 128.069 18.5643 126.551 19.1525 124.7L21.894 116.075C22.1527 115.261 21.8661 114.373 21.1804 113.864L13.956 108.498C12.4092 107.349 13.2217 104.893 15.1485 104.893H23.9855C24.8567 104.893 25.6277 104.329 25.8916 103.498L28.594 94.9965Z" fill="#F5E12A"/>
<path id="Star 2" d="M28.594 136.997C29.1848 135.138 31.8152 135.138 32.406 136.997L35.1084 145.498C35.3723 146.329 36.1433 146.893 37.0145 146.893H45.8515C47.7783 146.893 48.5908 149.349 47.044 150.498L39.8196 155.864C39.1339 156.373 38.8473 157.261 39.106 158.075L41.8475 166.7C42.4357 168.551 40.3078 170.069 38.749 168.912L31.6925 163.671C30.9844 163.145 30.0156 163.145 29.3075 163.671L22.251 168.912C20.6922 170.069 18.5643 168.551 19.1525 166.7L21.894 158.075C22.1527 157.261 21.8661 156.373 21.1804 155.864L13.956 150.498C12.4092 149.349 13.2217 146.893 15.1485 146.893H23.9855C24.8567 146.893 25.6277 146.329 25.8916 145.498L28.594 136.997Z" fill="#F5E12A"/>
<path id="Star 3" d="M28.594 182.997C29.1848 181.138 31.8152 181.138 32.406 182.997L35.1084 191.498C35.3723 192.329 36.1433 192.893 37.0145 192.893H45.8515C47.7783 192.893 48.5908 195.349 47.044 196.498L39.8196 201.864C39.1339 202.373 38.8473 203.261 39.106 204.075L41.8475 212.7C42.4357 214.551 40.3078 216.069 38.749 214.912L31.6925 209.671C30.9844 209.145 30.0156 209.145 29.3075 209.671L22.251 214.912C20.6922 216.069 18.5643 214.551 19.1525 212.7L21.894 204.075C22.1527 203.261 21.8661 202.373 21.1804 201.864L13.956 196.498C12.4092 195.349 13.2217 192.893 15.1485 192.893H23.9855C24.8567 192.893 25.6277 192.329 25.8916 191.498L28.594 182.997Z" fill="#F5E12A"/>
<path id="Star 4" d="M28.594 227.997C29.1848 226.138 31.8152 226.138 32.406 227.997L35.1084 236.498C35.3723 237.329 36.1433 237.893 37.0145 237.893H45.8515C47.7783 237.893 48.5908 240.349 47.044 241.498L39.8196 246.864C39.1339 247.373 38.8473 248.261 39.106 249.075L41.8475 257.7C42.4357 259.551 40.3078 261.069 38.749 259.912L31.6925 254.671C30.9844 254.145 30.0156 254.145 29.3075 254.671L22.251 259.912C20.6922 261.069 18.5643 259.551 19.1525 257.7L21.894 249.075C22.1527 248.261 21.8661 247.373 21.1804 246.864L13.956 241.498C12.4092 240.349 13.2217 237.893 15.1485 237.893H23.9855C24.8567 237.893 25.6277 237.329 25.8916 236.498L28.594 227.997Z" fill="#F5E12A"/>
</g>
<g id="Stars_3">
<path id="Star 1_2" d="M409.594 94.9965C410.185 93.1376 412.815 93.1376 413.406 94.9965L416.108 103.498C416.372 104.329 417.143 104.893 418.014 104.893H426.851C428.778 104.893 429.591 107.349 428.044 108.498L420.82 113.864C420.134 114.373 419.847 115.261 420.106 116.075L422.848 124.7C423.436 126.551 421.308 128.069 419.749 126.912L412.692 121.671C411.984 121.145 411.016 121.145 410.308 121.671L403.251 126.912C401.692 128.069 399.564 126.551 400.152 124.7L402.894 116.075C403.153 115.261 402.866 114.373 402.18 113.864L394.956 108.498C393.409 107.349 394.222 104.893 396.149 104.893H404.986C405.857 104.893 406.628 104.329 406.892 103.498L409.594 94.9965Z" fill="#F5E12A"/>
<path id="Star 2_2" d="M409.594 136.997C410.185 135.138 412.815 135.138 413.406 136.997L416.108 145.498C416.372 146.329 417.143 146.893 418.014 146.893H426.851C428.778 146.893 429.591 149.349 428.044 150.498L420.82 155.864C420.134 156.373 419.847 157.261 420.106 158.075L422.848 166.7C423.436 168.551 421.308 170.069 419.749 168.912L412.692 163.671C411.984 163.145 411.016 163.145 410.308 163.671L403.251 168.912C401.692 170.069 399.564 168.551 400.152 166.7L402.894 158.075C403.153 157.261 402.866 156.373 402.18 155.864L394.956 150.498C393.409 149.349 394.222 146.893 396.149 146.893H404.986C405.857 146.893 406.628 146.329 406.892 145.498L409.594 136.997Z" fill="#F5E12A"/>
<path id="Star 3_2" d="M409.594 182.997C410.185 181.138 412.815 181.138 413.406 182.997L416.108 191.498C416.372 192.329 417.143 192.893 418.014 192.893H426.851C428.778 192.893 429.591 195.349 428.044 196.498L420.82 201.864C420.134 202.373 419.847 203.261 420.106 204.075L422.848 212.7C423.436 214.551 421.308 216.069 419.749 214.912L412.692 209.671C411.984 209.145 411.016 209.145 410.308 209.671L403.251 214.912C401.692 216.069 399.564 214.551 400.152 212.7L402.894 204.075C403.153 203.261 402.866 202.373 402.18 201.864L394.956 196.498C393.409 195.349 394.222 192.893 396.149 192.893H404.986C405.857 192.893 406.628 192.329 406.892 191.498L409.594 182.997Z" fill="#F5E12A"/>
<path id="Star 4_2" d="M409.594 227.997C410.185 226.138 412.815 226.138 413.406 227.997L416.108 236.498C416.372 237.329 417.143 237.893 418.014 237.893H426.851C428.778 237.893 429.591 240.349 428.044 241.498L420.82 246.864C420.134 247.373 419.847 248.261 420.106 249.075L422.848 257.7C423.436 259.551 421.308 261.069 419.749 259.912L412.692 254.671C411.984 254.145 411.016 254.145 410.308 254.671L403.251 259.912C401.692 261.069 399.564 259.551 400.152 257.7L402.894 249.075C403.153 248.261 402.866 247.373 402.18 246.864L394.956 241.498C393.409 240.349 394.222 237.893 396.149 237.893H404.986C405.857 237.893 406.628 237.329 406.892 236.498L409.594 227.997Z" fill="#F5E12A"/>
</g>
<g id="Stars_4">
<path id="Star 1_3" d="M69.594 94.9965C70.1848 93.1376 72.8152 93.1376 73.406 94.9965L76.1084 103.498C76.3723 104.329 77.1433 104.893 78.0145 104.893H86.8515C88.7783 104.893 89.5908 107.349 88.044 108.498L80.8196 113.864C80.1339 114.373 79.8473 115.261 80.106 116.075L82.8475 124.7C83.4357 126.551 81.3078 128.069 79.749 126.912L72.6925 121.671C71.9844 121.145 71.0156 121.145 70.3075 121.671L63.251 126.912C61.6922 128.069 59.5643 126.551 60.1525 124.7L62.894 116.075C63.1527 115.261 62.8661 114.373 62.1804 113.864L54.956 108.498C53.4092 107.349 54.2217 104.893 56.1485 104.893H64.9855C65.8567 104.893 66.6277 104.329 66.8916 103.498L69.594 94.9965Z" fill="#F5E12A"/>
<path id="Star 2_3" d="M69.594 136.997C70.1848 135.138 72.8152 135.138 73.406 136.997L76.1084 145.498C76.3723 146.329 77.1433 146.893 78.0145 146.893H86.8515C88.7783 146.893 89.5908 149.349 88.044 150.498L80.8196 155.864C80.1339 156.373 79.8473 157.261 80.106 158.075L82.8475 166.7C83.4357 168.551 81.3078 170.069 79.749 168.912L72.6925 163.671C71.9844 163.145 71.0156 163.145 70.3075 163.671L63.251 168.912C61.6922 170.069 59.5643 168.551 60.1525 166.7L62.894 158.075C63.1527 157.261 62.8661 156.373 62.1804 155.864L54.956 150.498C53.4092 149.349 54.2217 146.893 56.1485 146.893H64.9855C65.8567 146.893 66.6277 146.329 66.8916 145.498L69.594 136.997Z" fill="#F5E12A"/>
<path id="Star 3_3" d="M69.594 182.997C70.1848 181.138 72.8152 181.138 73.406 182.997L76.1084 191.498C76.3723 192.329 77.1433 192.893 78.0145 192.893H86.8515C88.7783 192.893 89.5908 195.349 88.044 196.498L80.8196 201.864C80.1339 202.373 79.8473 203.261 80.106 204.075L82.8475 212.7C83.4357 214.551 81.3078 216.069 79.749 214.912L72.6925 209.671C71.9844 209.145 71.0156 209.145 70.3075 209.671L63.251 214.912C61.6922 216.069 59.5643 214.551 60.1525 212.7L62.894 204.075C63.1527 203.261 62.8661 202.373 62.1804 201.864L54.956 196.498C53.4092 195.349 54.2217 192.893 56.1485 192.893H64.9855C65.8567 192.893 66.6277 192.329 66.8916 191.498L69.594 182.997Z" fill="#F5E12A"/>
<path id="Star 4_3" d="M69.594 227.997C70.1848 226.138 72.8152 226.138 73.406 227.997L76.1084 236.498C76.3723 237.329 77.1433 237.893 78.0145 237.893H86.8515C88.7783 237.893 89.5908 240.349 88.044 241.498L80.8196 246.864C80.1339 247.373 79.8473 248.261 80.106 249.075L82.8475 257.7C83.4357 259.551 81.3078 261.069 79.749 259.912L72.6925 254.671C71.9844 254.145 71.0156 254.145 70.3075 254.671L63.251 259.912C61.6922 261.069 59.5643 259.551 60.1525 257.7L62.894 249.075C63.1527 248.261 62.8661 247.373 62.1804 246.864L54.956 241.498C53.4092 240.349 54.2217 237.893 56.1485 237.893H64.9855C65.8567 237.893 66.6277 237.329 66.8916 236.498L69.594 227.997Z" fill="#F5E12A"/>
</g>
<g id="Stars_5">
<path id="Star 1_4" d="M114.594 94.9965C115.185 93.1376 117.815 93.1376 118.406 94.9965L121.108 103.498C121.372 104.329 122.143 104.893 123.014 104.893H131.851C133.778 104.893 134.591 107.349 133.044 108.498L125.82 113.864C125.134 114.373 124.847 115.261 125.106 116.075L127.848 124.7C128.436 126.551 126.308 128.069 124.749 126.912L117.692 121.671C116.984 121.145 116.016 121.145 115.308 121.671L108.251 126.912C106.692 128.069 104.564 126.551 105.152 124.7L107.894 116.075C108.153 115.261 107.866 114.373 107.18 113.864L99.956 108.498C98.4092 107.349 99.2217 104.893 101.149 104.893H109.986C110.857 104.893 111.628 104.329 111.892 103.498L114.594 94.9965Z" fill="#F5E12A"/>
<path id="Star 2_4" d="M114.594 136.997C115.185 135.138 117.815 135.138 118.406 136.997L121.108 145.498C121.372 146.329 122.143 146.893 123.014 146.893H131.851C133.778 146.893 134.591 149.349 133.044 150.498L125.82 155.864C125.134 156.373 124.847 157.261 125.106 158.075L127.848 166.7C128.436 168.551 126.308 170.069 124.749 168.912L117.692 163.671C116.984 163.145 116.016 163.145 115.308 163.671L108.251 168.912C106.692 170.069 104.564 168.551 105.152 166.7L107.894 158.075C108.153 157.261 107.866 156.373 107.18 155.864L99.956 150.498C98.4092 149.349 99.2217 146.893 101.149 146.893H109.986C110.857 146.893 111.628 146.329 111.892 145.498L114.594 136.997Z" fill="#F5E12A"/>
<path id="Star 3_4" d="M114.594 182.997C115.185 181.138 117.815 181.138 118.406 182.997L121.108 191.498C121.372 192.329 122.143 192.893 123.014 192.893H131.851C133.778 192.893 134.591 195.349 133.044 196.498L125.82 201.864C125.134 202.373 124.847 203.261 125.106 204.075L127.848 212.7C128.436 214.551 126.308 216.069 124.749 214.912L117.692 209.671C116.984 209.145 116.016 209.145 115.308 209.671L108.251 214.912C106.692 216.069 104.564 214.551 105.152 212.7L107.894 204.075C108.153 203.261 107.866 202.373 107.18 201.864L99.956 196.498C98.4092 195.349 99.2217 192.893 101.149 192.893H109.986C110.857 192.893 111.628 192.329 111.892 191.498L114.594 182.997Z" fill="#F5E12A"/>
<path id="Star 4_4" d="M114.594 227.997C115.185 226.138 117.815 226.138 118.406 227.997L121.108 236.498C121.372 237.329 122.143 237.893 123.014 237.893H131.851C133.778 237.893 134.591 240.349 133.044 241.498L125.82 246.864C125.134 247.373 124.847 248.261 125.106 249.075L127.848 257.7C128.436 259.551 126.308 261.069 124.749 259.912L117.692 254.671C116.984 254.145 116.016 254.145 115.308 254.671L108.251 259.912C106.692 261.069 104.564 259.551 105.152 257.7L107.894 249.075C108.153 248.261 107.866 247.373 107.18 246.864L99.956 241.498C98.4092 240.349 99.2217 237.893 101.149 237.893H109.986C110.857 237.893 111.628 237.329 111.892 236.498L114.594 227.997Z" fill="#F5E12A"/>
</g>
<g id="Stars_6">
<path id="Star 1_5" d="M159.594 94.9965C160.185 93.1376 162.815 93.1376 163.406 94.9965L166.108 103.498C166.372 104.329 167.143 104.893 168.014 104.893H176.851C178.778 104.893 179.591 107.349 178.044 108.498L170.82 113.864C170.134 114.373 169.847 115.261 170.106 116.075L172.848 124.7C173.436 126.551 171.308 128.069 169.749 126.912L162.692 121.671C161.984 121.145 161.016 121.145 160.308 121.671L153.251 126.912C151.692 128.069 149.564 126.551 150.152 124.7L152.894 116.075C153.153 115.261 152.866 114.373 152.18 113.864L144.956 108.498C143.409 107.349 144.222 104.893 146.149 104.893H154.986C155.857 104.893 156.628 104.329 156.892 103.498L159.594 94.9965Z" fill="#F5E12A"/>
<path id="Star 2_5" d="M159.594 136.997C160.185 135.138 162.815 135.138 163.406 136.997L166.108 145.498C166.372 146.329 167.143 146.893 168.014 146.893H176.851C178.778 146.893 179.591 149.349 178.044 150.498L170.82 155.864C170.134 156.373 169.847 157.261 170.106 158.075L172.848 166.7C173.436 168.551 171.308 170.069 169.749 168.912L162.692 163.671C161.984 163.145 161.016 163.145 160.308 163.671L153.251 168.912C151.692 170.069 149.564 168.551 150.152 166.7L152.894 158.075C153.153 157.261 152.866 156.373 152.18 155.864L144.956 150.498C143.409 149.349 144.222 146.893 146.149 146.893H154.986C155.857 146.893 156.628 146.329 156.892 145.498L159.594 136.997Z" fill="#F5E12A"/>
<path id="Star 3_5" d="M159.594 182.997C160.185 181.138 162.815 181.138 163.406 182.997L166.108 191.498C166.372 192.329 167.143 192.893 168.014 192.893H176.851C178.778 192.893 179.591 195.349 178.044 196.498L170.82 201.864C170.134 202.373 169.847 203.261 170.106 204.075L172.848 212.7C173.436 214.551 171.308 216.069 169.749 214.912L162.692 209.671C161.984 209.145 161.016 209.145 160.308 209.671L153.251 214.912C151.692 216.069 149.564 214.551 150.152 212.7L152.894 204.075C153.153 203.261 152.866 202.373 152.18 201.864L144.956 196.498C143.409 195.349 144.222 192.893 146.149 192.893H154.986C155.857 192.893 156.628 192.329 156.892 191.498L159.594 182.997Z" fill="#F5E12A"/>
<path id="Star 4_5" d="M159.594 227.997C160.185 226.138 162.815 226.138 163.406 227.997L166.108 236.498C166.372 237.329 167.143 237.893 168.014 237.893H176.851C178.778 237.893 179.591 240.349 178.044 241.498L170.82 246.864C170.134 247.373 169.847 248.261 170.106 249.075L172.848 257.7C173.436 259.551 171.308 261.069 169.749 259.912L162.692 254.671C161.984 254.145 161.016 254.145 160.308 254.671L153.251 259.912C151.692 261.069 149.564 259.551 150.152 257.7L152.894 249.075C153.153 248.261 152.866 247.373 152.18 246.864L144.956 241.498C143.409 240.349 144.222 237.893 146.149 237.893H154.986C155.857 237.893 156.628 237.329 156.892 236.498L159.594 227.997Z" fill="#F5E12A"/>
</g>
<g id="Stars_7">
<path id="Star 1_6" d="M202.594 94.9965C203.185 93.1376 205.815 93.1376 206.406 94.9965L209.108 103.498C209.372 104.329 210.143 104.893 211.014 104.893H219.851C221.778 104.893 222.591 107.349 221.044 108.498L213.82 113.864C213.134 114.373 212.847 115.261 213.106 116.075L215.848 124.7C216.436 126.551 214.308 128.069 212.749 126.912L205.692 121.671C204.984 121.145 204.016 121.145 203.308 121.671L196.251 126.912C194.692 128.069 192.564 126.551 193.152 124.7L195.894 116.075C196.153 115.261 195.866 114.373 195.18 113.864L187.956 108.498C186.409 107.349 187.222 104.893 189.149 104.893H197.986C198.857 104.893 199.628 104.329 199.892 103.498L202.594 94.9965Z" fill="#F5E12A"/>
<path id="Star 2_6" d="M202.594 136.997C203.185 135.138 205.815 135.138 206.406 136.997L209.108 145.498C209.372 146.329 210.143 146.893 211.014 146.893H219.851C221.778 146.893 222.591 149.349 221.044 150.498L213.82 155.864C213.134 156.373 212.847 157.261 213.106 158.075L215.848 166.7C216.436 168.551 214.308 170.069 212.749 168.912L205.692 163.671C204.984 163.145 204.016 163.145 203.308 163.671L196.251 168.912C194.692 170.069 192.564 168.551 193.152 166.7L195.894 158.075C196.153 157.261 195.866 156.373 195.18 155.864L187.956 150.498C186.409 149.349 187.222 146.893 189.149 146.893H197.986C198.857 146.893 199.628 146.329 199.892 145.498L202.594 136.997Z" fill="#F5E12A"/>
<path id="Star 3_6" d="M202.594 182.997C203.185 181.138 205.815 181.138 206.406 182.997L209.108 191.498C209.372 192.329 210.143 192.893 211.014 192.893H219.851C221.778 192.893 222.591 195.349 221.044 196.498L213.82 201.864C213.134 202.373 212.847 203.261 213.106 204.075L215.848 212.7C216.436 214.551 214.308 216.069 212.749 214.912L205.692 209.671C204.984 209.145 204.016 209.145 203.308 209.671L196.251 214.912C194.692 216.069 192.564 214.551 193.152 212.7L195.894 204.075C196.153 203.261 195.866 202.373 195.18 201.864L187.956 196.498C186.409 195.349 187.222 192.893 189.149 192.893H197.986C198.857 192.893 199.628 192.329 199.892 191.498L202.594 182.997Z" fill="#F5E12A"/>
<path id="Star 4_6" d="M202.594 227.997C203.185 226.138 205.815 226.138 206.406 227.997L209.108 236.498C209.372 237.329 210.143 237.893 211.014 237.893H219.851C221.778 237.893 222.591 240.349 221.044 241.498L213.82 246.864C213.134 247.373 212.847 248.261 213.106 249.075L215.848 257.7C216.436 259.551 214.308 261.069 212.749 259.912L205.692 254.671C204.984 254.145 204.016 254.145 203.308 254.671L196.251 259.912C194.692 261.069 192.564 259.551 193.152 257.7L195.894 249.075C196.153 248.261 195.866 247.373 195.18 246.864L187.956 241.498C186.409 240.349 187.222 237.893 189.149 237.893H197.986C198.857 237.893 199.628 237.329 199.892 236.498L202.594 227.997Z" fill="#F5E12A"/>
</g>
<g id="Stars_8">
<path id="Star 1_7" d="M247.594 94.9965C248.185 93.1376 250.815 93.1376 251.406 94.9965L254.108 103.498C254.372 104.329 255.143 104.893 256.014 104.893H264.851C266.778 104.893 267.591 107.349 266.044 108.498L258.82 113.864C258.134 114.373 257.847 115.261 258.106 116.075L260.848 124.7C261.436 126.551 259.308 128.069 257.749 126.912L250.692 121.671C249.984 121.145 249.016 121.145 248.308 121.671L241.251 126.912C239.692 128.069 237.564 126.551 238.152 124.7L240.894 116.075C241.153 115.261 240.866 114.373 240.18 113.864L232.956 108.498C231.409 107.349 232.222 104.893 234.149 104.893H242.986C243.857 104.893 244.628 104.329 244.892 103.498L247.594 94.9965Z" fill="#F5E12A"/>
<path id="Star 2_7" d="M247.594 136.997C248.185 135.138 250.815 135.138 251.406 136.997L254.108 145.498C254.372 146.329 255.143 146.893 256.014 146.893H264.851C266.778 146.893 267.591 149.349 266.044 150.498L258.82 155.864C258.134 156.373 257.847 157.261 258.106 158.075L260.848 166.7C261.436 168.551 259.308 170.069 257.749 168.912L250.692 163.671C249.984 163.145 249.016 163.145 248.308 163.671L241.251 168.912C239.692 170.069 237.564 168.551 238.152 166.7L240.894 158.075C241.153 157.261 240.866 156.373 240.18 155.864L232.956 150.498C231.409 149.349 232.222 146.893 234.149 146.893H242.986C243.857 146.893 244.628 146.329 244.892 145.498L247.594 136.997Z" fill="#F5E12A"/>
<path id="Star 3_7" d="M247.594 182.997C248.185 181.138 250.815 181.138 251.406 182.997L254.108 191.498C254.372 192.329 255.143 192.893 256.014 192.893H264.851C266.778 192.893 267.591 195.349 266.044 196.498L258.82 201.864C258.134 202.373 257.847 203.261 258.106 204.075L260.848 212.7C261.436 214.551 259.308 216.069 257.749 214.912L250.692 209.671C249.984 209.145 249.016 209.145 248.308 209.671L241.251 214.912C239.692 216.069 237.564 214.551 238.152 212.7L240.894 204.075C241.153 203.261 240.866 202.373 240.18 201.864L232.956 196.498C231.409 195.349 232.222 192.893 234.149 192.893H242.986C243.857 192.893 244.628 192.329 244.892 191.498L247.594 182.997Z" fill="#F5E12A"/>
<path id="Star 4_7" d="M247.594 227.997C248.185 226.138 250.815 226.138 251.406 227.997L254.108 236.498C254.372 237.329 255.143 237.893 256.014 237.893H264.851C266.778 237.893 267.591 240.349 266.044 241.498L258.82 246.864C258.134 247.373 257.847 248.261 258.106 249.075L260.848 257.7C261.436 259.551 259.308 261.069 257.749 259.912L250.692 254.671C249.984 254.145 249.016 254.145 248.308 254.671L241.251 259.912C239.692 261.069 237.564 259.551 238.152 257.7L240.894 249.075C241.153 248.261 240.866 247.373 240.18 246.864L232.956 241.498C231.409 240.349 232.222 237.893 234.149 237.893H242.986C243.857 237.893 244.628 237.329 244.892 236.498L247.594 227.997Z" fill="#F5E12A"/>
</g>
<g id="Stars_9">
<path id="Star 1_8" d="M290.594 94.9965C291.185 93.1376 293.815 93.1376 294.406 94.9965L297.108 103.498C297.372 104.329 298.143 104.893 299.014 104.893H307.851C309.778 104.893 310.591 107.349 309.044 108.498L301.82 113.864C301.134 114.373 300.847 115.261 301.106 116.075L303.848 124.7C304.436 126.551 302.308 128.069 300.749 126.912L293.692 121.671C292.984 121.145 292.016 121.145 291.308 121.671L284.251 126.912C282.692 128.069 280.564 126.551 281.152 124.7L283.894 116.075C284.153 115.261 283.866 114.373 283.18 113.864L275.956 108.498C274.409 107.349 275.222 104.893 277.149 104.893H285.986C286.857 104.893 287.628 104.329 287.892 103.498L290.594 94.9965Z" fill="#F5E12A"/>
<path id="Star 2_8" d="M290.594 136.997C291.185 135.138 293.815 135.138 294.406 136.997L297.108 145.498C297.372 146.329 298.143 146.893 299.014 146.893H307.851C309.778 146.893 310.591 149.349 309.044 150.498L301.82 155.864C301.134 156.373 300.847 157.261 301.106 158.075L303.848 166.7C304.436 168.551 302.308 170.069 300.749 168.912L293.692 163.671C292.984 163.145 292.016 163.145 291.308 163.671L284.251 168.912C282.692 170.069 280.564 168.551 281.152 166.7L283.894 158.075C284.153 157.261 283.866 156.373 283.18 155.864L275.956 150.498C274.409 149.349 275.222 146.893 277.149 146.893H285.986C286.857 146.893 287.628 146.329 287.892 145.498L290.594 136.997Z" fill="#F5E12A"/>
<path id="Star 3_8" d="M290.594 182.997C291.185 181.138 293.815 181.138 294.406 182.997L297.108 191.498C297.372 192.329 298.143 192.893 299.014 192.893H307.851C309.778 192.893 310.591 195.349 309.044 196.498L301.82 201.864C301.134 202.373 300.847 203.261 301.106 204.075L303.848 212.7C304.436 214.551 302.308 216.069 300.749 214.912L293.692 209.671C292.984 209.145 292.016 209.145 291.308 209.671L284.251 214.912C282.692 216.069 280.564 214.551 281.152 212.7L283.894 204.075C284.153 203.261 283.866 202.373 283.18 201.864L275.956 196.498C274.409 195.349 275.222 192.893 277.149 192.893H285.986C286.857 192.893 287.628 192.329 287.892 191.498L290.594 182.997Z" fill="#F5E12A"/>
<path id="Star 4_8" d="M290.594 227.997C291.185 226.138 293.815 226.138 294.406 227.997L297.108 236.498C297.372 237.329 298.143 237.893 299.014 237.893H307.851C309.778 237.893 310.591 240.349 309.044 241.498L301.82 246.864C301.134 247.373 300.847 248.261 301.106 249.075L303.848 257.7C304.436 259.551 302.308 261.069 300.749 259.912L293.692 254.671C292.984 254.145 292.016 254.145 291.308 254.671L284.251 259.912C282.692 261.069 280.564 259.551 281.152 257.7L283.894 249.075C284.153 248.261 283.866 247.373 283.18 246.864L275.956 241.498C274.409 240.349 275.222 237.893 277.149 237.893H285.986C286.857 237.893 287.628 237.329 287.892 236.498L290.594 227.997Z" fill="#F5E12A"/>
</g>
<g id="Stars_10">
<path id="Star 1_9" d="M331.594 94.9965C332.185 93.1376 334.815 93.1376 335.406 94.9965L338.108 103.498C338.372 104.329 339.143 104.893 340.014 104.893H348.851C350.778 104.893 351.591 107.349 350.044 108.498L342.82 113.864C342.134 114.373 341.847 115.261 342.106 116.075L344.848 124.7C345.436 126.551 343.308 128.069 341.749 126.912L334.692 121.671C333.984 121.145 333.016 121.145 332.308 121.671L325.251 126.912C323.692 128.069 321.564 126.551 322.152 124.7L324.894 116.075C325.153 115.261 324.866 114.373 324.18 113.864L316.956 108.498C315.409 107.349 316.222 104.893 318.149 104.893H326.986C327.857 104.893 328.628 104.329 328.892 103.498L331.594 94.9965Z" fill="#F5E12A"/>
<path id="Star 2_9" d="M331.594 136.997C332.185 135.138 334.815 135.138 335.406 136.997L338.108 145.498C338.372 146.329 339.143 146.893 340.014 146.893H348.851C350.778 146.893 351.591 149.349 350.044 150.498L342.82 155.864C342.134 156.373 341.847 157.261 342.106 158.075L344.848 166.7C345.436 168.551 343.308 170.069 341.749 168.912L334.692 163.671C333.984 163.145 333.016 163.145 332.308 163.671L325.251 168.912C323.692 170.069 321.564 168.551 322.152 166.7L324.894 158.075C325.153 157.261 324.866 156.373 324.18 155.864L316.956 150.498C315.409 149.349 316.222 146.893 318.149 146.893H326.986C327.857 146.893 328.628 146.329 328.892 145.498L331.594 136.997Z" fill="#F5E12A"/>
<path id="Star 3_9" d="M331.594 182.997C332.185 181.138 334.815 181.138 335.406 182.997L338.108 191.498C338.372 192.329 339.143 192.893 340.014 192.893H348.851C350.778 192.893 351.591 195.349 350.044 196.498L342.82 201.864C342.134 202.373 341.847 203.261 342.106 204.075L344.848 212.7C345.436 214.551 343.308 216.069 341.749 214.912L334.692 209.671C333.984 209.145 333.016 209.145 332.308 209.671L325.251 214.912C323.692 216.069 321.564 214.551 322.152 212.7L324.894 204.075C325.153 203.261 324.866 202.373 324.18 201.864L316.956 196.498C315.409 195.349 316.222 192.893 318.149 192.893H326.986C327.857 192.893 328.628 192.329 328.892 191.498L331.594 182.997Z" fill="#F5E12A"/>
<path id="Star 4_9" d="M331.594 227.997C332.185 226.138 334.815 226.138 335.406 227.997L338.108 236.498C338.372 237.329 339.143 237.893 340.014 237.893H348.851C350.778 237.893 351.591 240.349 350.044 241.498L342.82 246.864C342.134 247.373 341.847 248.261 342.106 249.075L344.848 257.7C345.436 259.551 343.308 261.069 341.749 259.912L334.692 254.671C333.984 254.145 333.016 254.145 332.308 254.671L325.251 259.912C323.692 261.069 321.564 259.551 322.152 257.7L324.894 249.075C325.153 248.261 324.866 247.373 324.18 246.864L316.956 241.498C315.409 240.349 316.222 237.893 318.149 237.893H326.986C327.857 237.893 328.628 237.329 328.892 236.498L331.594 227.997Z" fill="#F5E12A"/>
</g>
<g id="Stars_11">
<path id="Star 1_10" d="M370.594 94.9965C371.185 93.1376 373.815 93.1376 374.406 94.9965L377.108 103.498C377.372 104.329 378.143 104.893 379.014 104.893H387.851C389.778 104.893 390.591 107.349 389.044 108.498L381.82 113.864C381.134 114.373 380.847 115.261 381.106 116.075L383.848 124.7C384.436 126.551 382.308 128.069 380.749 126.912L373.692 121.671C372.984 121.145 372.016 121.145 371.308 121.671L364.251 126.912C362.692 128.069 360.564 126.551 361.152 124.7L363.894 116.075C364.153 115.261 363.866 114.373 363.18 113.864L355.956 108.498C354.409 107.349 355.222 104.893 357.149 104.893H365.986C366.857 104.893 367.628 104.329 367.892 103.498L370.594 94.9965Z" fill="#F5E12A"/>
<path id="Star 2_10" d="M370.594 136.997C371.185 135.138 373.815 135.138 374.406 136.997L377.108 145.498C377.372 146.329 378.143 146.893 379.014 146.893H387.851C389.778 146.893 390.591 149.349 389.044 150.498L381.82 155.864C381.134 156.373 380.847 157.261 381.106 158.075L383.848 166.7C384.436 168.551 382.308 170.069 380.749 168.912L373.692 163.671C372.984 163.145 372.016 163.145 371.308 163.671L364.251 168.912C362.692 170.069 360.564 168.551 361.152 166.7L363.894 158.075C364.153 157.261 363.866 156.373 363.18 155.864L355.956 150.498C354.409 149.349 355.222 146.893 357.149 146.893H365.986C366.857 146.893 367.628 146.329 367.892 145.498L370.594 136.997Z" fill="#F5E12A"/>
<path id="Star 3_10" d="M370.594 182.997C371.185 181.138 373.815 181.138 374.406 182.997L377.108 191.498C377.372 192.329 378.143 192.893 379.014 192.893H387.851C389.778 192.893 390.591 195.349 389.044 196.498L381.82 201.864C381.134 202.373 380.847 203.261 381.106 204.075L383.848 212.7C384.436 214.551 382.308 216.069 380.749 214.912L373.692 209.671C372.984 209.145 372.016 209.145 371.308 209.671L364.251 214.912C362.692 216.069 360.564 214.551 361.152 212.7L363.894 204.075C364.153 203.261 363.866 202.373 363.18 201.864L355.956 196.498C354.409 195.349 355.222 192.893 357.149 192.893H365.986C366.857 192.893 367.628 192.329 367.892 191.498L370.594 182.997Z" fill="#F5E12A"/>
<path id="Star 4_10" d="M370.594 227.997C371.185 226.138 373.815 226.138 374.406 227.997L377.108 236.498C377.372 237.329 378.143 237.893 379.014 237.893H387.851C389.778 237.893 390.591 240.349 389.044 241.498L381.82 246.864C381.134 247.373 380.847 248.261 381.106 249.075L383.848 257.7C384.436 259.551 382.308 261.069 380.749 259.912L373.692 254.671C372.984 254.145 372.016 254.145 371.308 254.671L364.251 259.912C362.692 261.069 360.564 259.551 361.152 257.7L363.894 249.075C364.153 248.261 363.866 247.373 363.18 246.864L355.956 241.498C354.409 240.349 355.222 237.893 357.149 237.893H365.986C366.857 237.893 367.628 237.329 367.892 236.498L370.594 227.997Z" fill="#F5E12A"/>
</g>
</g>
<path id="cloud" fill-rule="evenodd" clip-rule="evenodd" d="M49.3965 465.562C47.6022 465.85 45.7623 466 43.8879 466C24.6199 466 9 450.168 9 430.639C9 415.174 18.795 402.028 32.44 397.226C32.32 395.994 32.2586 394.744 32.2586 393.48C32.2586 372.627 48.9746 355.722 69.5948 355.722C74.7995 355.722 79.7554 356.799 84.2566 358.744C86.4117 357.035 88.7214 355.51 91.1616 354.192C91.066 353.116 91.0172 352.027 91.0172 350.927C91.0172 329.743 109.103 312.57 131.414 312.57C133.984 312.57 136.499 312.798 138.936 313.233C147.352 304.676 158.974 299.384 171.81 299.384C183.265 299.384 193.753 303.598 201.859 310.587C212.393 295.205 230.909 285 251.991 285C276.701 285 297.885 299.019 306.825 318.96C308.087 318.7 309.401 318.563 310.75 318.563C319.963 318.563 327.537 324.962 328.415 333.152C334.435 329.965 341.347 328.152 348.698 328.152C372.023 328.152 390.931 346.399 390.931 368.907C390.931 373.73 390.063 378.358 388.469 382.652C406.174 387.879 419.086 404.165 419.086 423.447C419.086 424.311 419.06 425.17 419.009 426.021C428.24 428.451 435 436.306 435 445.623C435 456.877 425.135 466 412.966 466C412.555 466 412.147 465.99 411.741 465.969V466H376.241H49.3965V465.562Z" fill="#D9D9D9"/>
<path id="crescentmoon" fill-rule="evenodd" clip-rule="evenodd" d="M28.3697 5.96931C21.8301 6.77109 16.7453 12.8723 16.7453 20.28C16.7453 28.2329 22.6062 34.68 29.836 34.68C29.8907 34.68 29.9454 34.6796 30 34.6789C27.1396 37.3728 23.4242 39 19.3634 39C10.3261 39 3 30.9411 3 21C3 11.0589 10.3261 3 19.3634 3C22.6909 3 25.7864 4.09254 28.3697 5.96931Z" fill="#F5E12A"/>
<circle id="fullmoon" cx="422.5" cy="20.5" r="17.5" fill="#D9D9D9"/>
</g>
</svg>
