<svg width="401" height="513" viewBox="0 0 401 513" fill="none" xmlns="http://www.w3.org/2000/svg">
<rect width="401" height="513" fill="#F5F5F5"/>
<g id="menubackground">
<rect width="401" height="513" fill="#293780"/>
<!-- <g id="filter5" opacity="0.7">
<rect x="101" y="123" width="199" height="57" rx="28.5" fill="#C8EBFF"/>
<rect x="101" y="123" width="199" height="57" rx="28.5" fill="#C8EBFF"/>
</g>
<g id="filter5_2" opacity="0.7">
<rect x="101" y="228" width="199" height="57" rx="28.5" fill="#C8EBFF"/>
<rect x="101" y="228" width="199" height="57" rx="28.5" fill="#C8EBFF"/>
</g>
<g id="filter5_3" opacity="0.7">
<rect x="101" y="333" width="199" height="57" rx="28.5" fill="#C8EBFF"/>
<rect x="101" y="333" width="199" height="57" rx="28.5" fill="#C8EBFF"/>
</g> -->
<path id="Star 5" d="M56.5979 295.854C57.1966 294.011 59.8034 294.011 60.4021 295.854L64.8986 309.693C65.1664 310.517 65.9343 311.075 66.8008 311.075H81.3519C83.2893 311.075 84.0949 313.554 82.5274 314.693L70.7553 323.246C70.0544 323.755 69.7611 324.658 70.0288 325.482L74.5253 339.321C75.124 341.164 73.0151 342.696 71.4477 341.557L59.6756 333.004C58.9746 332.495 58.0254 332.495 57.3244 333.004L45.5523 341.557C43.9849 342.696 41.876 341.164 42.4747 339.321L46.9712 325.482C47.2389 324.658 46.9456 323.755 46.2447 323.246L34.4726 314.693C32.9051 313.554 33.7107 311.075 35.6481 311.075H50.1992C51.0657 311.075 51.8336 310.517 52.1014 309.693L56.5979 295.854Z" fill="#F5E12A"/>
<path id="Star 6" d="M31.0979 260.854C31.6966 259.011 34.3034 259.011 34.9021 260.854L38.1638 270.893C38.4316 271.717 39.1995 272.275 40.0659 272.275H50.621C52.5585 272.275 53.364 274.754 51.7966 275.893L43.2574 282.097C42.5564 282.606 42.2631 283.509 42.5308 284.333L45.7925 294.371C46.3912 296.214 44.2823 297.746 42.7148 296.607L34.1756 290.403C33.4746 289.894 32.5254 289.894 31.8244 290.403L23.2852 296.607C21.7177 297.746 19.6088 296.214 20.2075 294.371L23.4692 284.333C23.7369 283.509 23.4436 282.606 22.7426 282.097L14.2034 275.893C12.636 274.754 13.4415 272.275 15.379 272.275H25.9341C26.8005 272.275 27.5684 271.717 27.8362 270.893L31.0979 260.854Z" fill="#F5E12A"/>
<path id="Star 7" d="M331.098 65.8541C331.697 64.0115 334.303 64.0115 334.902 65.8541L335.919 68.9828C336.186 69.8068 336.954 70.3647 337.821 70.3647H341.11C343.048 70.3647 343.853 72.844 342.286 73.9828L339.625 75.9164C338.924 76.4257 338.63 77.3284 338.898 78.1525L339.915 81.2812C340.513 83.1238 338.404 84.656 336.837 83.5172L334.176 81.5836C333.475 81.0743 332.525 81.0743 331.824 81.5836L329.163 83.5172C327.596 84.656 325.487 83.1238 326.085 81.2812L327.102 78.1525C327.37 77.3284 327.076 76.4257 326.375 75.9164L323.714 73.9828C322.147 72.844 322.952 70.3647 324.89 70.3647H328.179C329.046 70.3647 329.814 69.8068 330.081 68.9828L331.098 65.8541Z" fill="#F5E12A"/>
<path id="Star 9" d="M341.184 95.5902C341.755 93.8306 344.245 93.8306 344.816 95.5902V95.5902C345.072 96.3771 345.805 96.9098 346.633 96.9098V96.9098C348.483 96.9098 349.252 99.2773 347.755 100.365V100.365C347.086 100.851 346.806 101.713 347.061 102.5V102.5C347.633 104.26 345.619 105.723 344.123 104.635V104.635C343.453 104.149 342.547 104.149 341.877 104.635V104.635C340.381 105.723 338.367 104.26 338.939 102.5V102.5C339.194 101.713 338.914 100.851 338.245 100.365V100.365C336.748 99.2773 337.517 96.9098 339.367 96.9098V96.9098C340.195 96.9098 340.928 96.3771 341.184 95.5902V95.5902Z" fill="#F5E12A"/>
<path id="Star 8" d="M46.0979 236.854C46.6966 235.011 49.3034 235.011 49.9021 236.854L50.9187 239.983C51.1864 240.807 51.9543 241.365 52.8208 241.365H56.1105C58.0479 241.365 58.8535 243.844 57.2861 244.983L54.6246 246.916C53.9237 247.426 53.6303 248.328 53.8981 249.152L54.9147 252.281C55.5134 254.124 53.4044 255.656 51.837 254.517L49.1756 252.584C48.4746 252.074 47.5254 252.074 46.8244 252.584L44.163 254.517C42.5956 255.656 40.4866 254.124 41.0853 252.281L42.1019 249.152C42.3697 248.328 42.0763 247.426 41.3754 246.916L38.714 244.983C37.1465 243.844 37.9521 241.365 39.8895 241.365H43.1792C44.0457 241.365 44.8136 240.807 45.0813 239.983L46.0979 236.854Z" fill="#F5E12A"/>
<circle id="fullmoon" cx="109" cy="120" r="21" fill="#D9D9D9"/>
<path id="crescentmoon" fill-rule="evenodd" clip-rule="evenodd" d="M303.309 317.969C296.527 318.771 291.254 324.872 291.254 332.28C291.254 340.233 297.332 346.68 304.83 346.68C304.887 346.68 304.943 346.68 305 346.679C302.034 349.373 298.181 351 293.969 351C284.597 351 277 342.941 277 333C277 323.059 284.597 315 293.969 315C297.42 315 300.63 316.093 303.309 317.969Z" fill="#F5E12A"/>
</g>
</svg>
