<svg width="81" height="120" viewBox="0 0 81 120" fill="none" xmlns="http://www.w3.org/2000/svg">
<g id="menuStarsGroup">
<path id="Star 5" d="M48.5979 64.8541C49.1966 63.0115 51.8034 63.0115 52.4021 64.8541L56.8986 78.693C57.1664 79.5171 57.9343 80.075 58.8008 80.075H73.3519C75.2893 80.075 76.0949 82.5542 74.5274 83.693L62.7553 92.2459C62.0544 92.7552 61.7611 93.658 62.0288 94.482L66.5253 108.321C67.124 110.164 65.0151 111.696 63.4477 110.557L51.6756 102.004C50.9746 101.495 50.0254 101.495 49.3244 102.004L37.5523 110.557C35.9849 111.696 33.876 110.164 34.4747 108.321L38.9712 94.482C39.2389 93.658 38.9456 92.7552 38.2447 92.2459L26.4726 83.693C24.9051 82.5542 25.7107 80.075 27.6481 80.075H42.1992C43.0657 80.075 43.8336 79.5171 44.1014 78.693L48.5979 64.8541Z" fill="#F5E12A"/>
<path id="Star 6" d="M23.0979 29.8541C23.6966 28.0115 26.3034 28.0115 26.9021 29.8541L30.1638 39.8926C30.4316 40.7167 31.1995 41.2746 32.0659 41.2746H42.621C44.5585 41.2746 45.364 43.7538 43.7966 44.8926L35.2574 51.0967C34.5564 51.606 34.2631 52.5088 34.5308 53.3328L37.7925 63.3713C38.3912 65.2139 36.2823 66.7462 34.7148 65.6074L26.1756 59.4032C25.4746 58.894 24.5254 58.894 23.8244 59.4033L15.2852 65.6074C13.7177 66.7462 11.6088 65.2139 12.2075 63.3713L15.4692 53.3328C15.7369 52.5088 15.4436 51.606 14.7426 51.0967L6.20338 44.8926C4.63595 43.7538 5.44151 41.2746 7.37895 41.2746H17.9341C18.8005 41.2746 19.5684 40.7167 19.8362 39.8926L23.0979 29.8541Z" fill="#F5E12A"/>
<path id="Star 8" d="M38.0979 5.8541C38.6966 4.01148 41.3034 4.01148 41.9021 5.8541L42.9187 8.98278C43.1864 9.80682 43.9543 10.3647 44.8208 10.3647H48.1105C50.0479 10.3647 50.8535 12.844 49.2861 13.9828L46.6246 15.9164C45.9237 16.4257 45.6303 17.3284 45.8981 18.1525L46.9147 21.2812C47.5134 23.1238 45.4044 24.656 43.837 23.5172L41.1756 21.5836C40.4746 21.0743 39.5254 21.0743 38.8244 21.5836L36.163 23.5172C34.5956 24.656 32.4866 23.1238 33.0853 21.2812L34.1019 18.1525C34.3697 17.3284 34.0763 16.4257 33.3754 15.9164L30.714 13.9828C29.1465 12.844 29.9521 10.3647 31.8895 10.3647H35.1792C36.0457 10.3647 36.8136 9.80682 37.0813 8.98278L38.0979 5.8541Z" fill="#F5E12A"/>
</g>
</svg>
