<svg width="423" height="192" viewBox="0 0 423 192" fill="none" xmlns="http://www.w3.org/2000/svg">
<rect opacity="0.7" width="423" height="192" rx="26" fill="#DADAFF"/>
<path fill-rule="evenodd" clip-rule="evenodd" d="M34.6422 192C36.5034 192 38.3304 191.85 40.1121 191.562V192H364.655H399.905V191.969C400.308 191.99 400.713 192 401.121 192C413.204 192 423 182.877 423 171.623C423 162.306 416.288 154.451 407.122 152.021C407.172 151.17 407.198 150.311 407.198 149.447C407.198 130.165 394.377 113.879 376.797 108.652C378.379 104.358 379.241 99.7305 379.241 94.9073C379.241 72.3989 360.466 54.1523 337.306 54.1523C330.007 54.1523 323.143 55.9647 317.166 59.1516C316.294 50.9624 308.773 44.5629 299.625 44.5629C298.286 44.5629 296.981 44.7001 295.727 44.96C286.85 25.019 265.816 11 241.28 11C220.346 11 201.961 21.2053 191.501 36.587C183.452 29.5985 173.038 25.3841 161.664 25.3841C148.918 25.3841 137.378 30.676 129.021 39.2333C126.601 38.7975 124.104 38.5695 121.552 38.5695C99.3984 38.5695 81.4397 55.7428 81.4397 76.9272C81.4397 78.027 81.4881 79.116 81.583 80.1924C79.16 81.5101 76.8666 83.0354 74.7266 84.7445C70.2571 82.7989 65.3361 81.7219 60.1681 81.7219C39.6931 81.7219 23.0948 98.6268 23.0948 119.48C23.0948 120.744 23.1558 121.994 23.2749 123.226C9.72598 128.028 0 141.174 0 156.639C0 158.138 0.0913901 159.615 0.268794 161.066C0.0916974 162.35 0 163.664 0 165C0 179.912 11.4167 192 25.5 192C26.9226 192 28.3179 191.877 29.6771 191.64C31.2986 191.877 32.9564 192 34.6422 192Z" fill="#D9D9D9"/>
</svg>
