<svg width="35" height="35" viewBox="0 0 35 35" fill="none" xmlns="http://www.w3.org/2000/svg">
<path d="M15.594 1.99652C16.1848 0.137647 18.8152 0.137643 19.406 1.99652L22.1084 10.4985C22.3723 11.3287 23.1433 11.8926 24.0145 11.8926H32.8515C34.7783 11.8926 35.5908 14.3494 34.0439 15.4982L26.8196 20.8637C26.1339 21.3729 25.8473 22.2613 26.106 23.0752L28.8475 31.7002C29.4357 33.5506 27.3078 35.0693 25.749 33.9117L18.6925 28.6709C17.9844 28.145 17.0156 28.145 16.3075 28.6709L9.25097 33.9117C7.69222 35.0693 5.56431 33.5506 6.15246 31.7002L8.89399 23.0752C9.1527 22.2613 8.86605 21.3729 8.18044 20.8637L0.956048 15.4982C-0.590793 14.3494 0.221737 11.8926 2.14852 11.8926H10.9855C11.8567 11.8926 12.6277 11.3287 12.8916 10.4985L15.594 1.99652Z" fill="#F5E12A"/>
</svg>
