<svg width="47" height="45" viewBox="0 0 47 45" fill="none" xmlns="http://www.w3.org/2000/svg">
<path d="M19.6958 3.70821C20.8932 0.0229664 26.1068 0.0229616 27.3042 3.7082L29.8986 11.693C30.4341 13.3411 31.97 14.4569 33.7029 14.4569H42.0986C45.9735 14.4569 47.5846 19.4154 44.4497 21.693L37.6575 26.6279C36.2555 27.6465 35.6689 29.4519 36.2044 31.1L38.7988 39.0848C39.9962 42.7701 35.7783 45.8346 32.6434 43.557L25.8511 38.6221C24.4492 37.6035 22.5508 37.6035 21.1489 38.6221L14.3566 43.557C11.2217 45.8346 7.0038 42.7701 8.20121 39.0848L10.7956 31.1C11.3311 29.4519 10.7445 27.6465 9.34254 26.6279L2.55026 21.693C-0.584595 19.4154 1.0265 14.4569 4.9014 14.4569H13.2971C15.03 14.4569 16.5659 13.3411 17.1014 11.693L19.6958 3.70821Z" fill="#F5E12A"/>
</svg>
