<svg width="364" height="364" viewBox="0 0 364 364" fill="none" xmlns="http://www.w3.org/2000/svg">
<g id="Triangles" clip-path="url(#clip0_1_2)">
<g id="lightgroup">
<path id="light1" opacity="0.7" d="M126.764 176.281C130.882 178.557 130.898 184.471 126.792 186.768L23.0408 244.825C19.0475 247.059 14.1231 244.181 14.1109 239.605L13.8047 124.043C13.7926 119.467 18.7017 116.562 22.7069 118.775L126.764 176.281Z" fill="#1DF3E6"/>
</g>
<g id="darkgroup">
<path id="dark2" opacity="0.7" d="M194.764 176.281C198.882 178.557 198.898 184.471 194.792 186.768L91.0408 244.825C87.0475 247.059 82.1231 244.181 82.1109 239.605L81.8047 124.043C81.7926 119.467 86.7017 116.562 90.7069 118.775L194.764 176.281Z" fill="#4F4CE3"/>
<path id="dark1" opacity="0.7" d="M126.764 176.281C130.882 178.557 130.898 184.471 126.792 186.768L23.0408 244.825C19.0475 247.059 14.1231 244.181 14.1109 239.605L13.8047 124.043C13.7926 119.467 18.7017 116.562 22.7069 118.775L126.764 176.281Z" fill="#4F4CE3"/>
</g>
</g>
<defs>
<clipPath id="clip0_1_2">
<rect width="364" height="364" fill="white"/>
</clipPath>
</defs>
</svg>
